<svg xmlns="http://www.w3.org/2000/svg" width="342" height="127" viewBox="0 0 342 127">
    <g fill="none" fill-rule="evenodd">
        <path stroke="#7A8A9C" stroke-dasharray="2,6" stroke-linecap="round" stroke-linejoin="round" stroke-width="1.5" d="M77.971 91.188l41.222-23.895 98.825 57.053 61.853-35.71"/>
        <path fill="#F8ABAB" d="M122.69 67.089c1.856 1.071 1.866 2.809.021 3.881-1.843 1.072-4.844 1.071-6.698 0-1.856-1.072-1.867-2.809-.023-3.881 1.844-1.072 4.844-1.072 6.7 0"/>
        <path stroke="#AB3E54" stroke-linecap="round" stroke-linejoin="round" stroke-width="2" d="M122.69 67.089c1.856 1.071 1.866 2.809.021 3.881-1.843 1.072-4.844 1.071-6.698 0-1.856-1.072-1.867-2.809-.023-3.881 1.844-1.072 4.844-1.072 6.7 0z"/>
        <path fill="#D2EBFA" d="M221.357 120.862c1.856 1.071 1.866 2.809.021 3.881-1.844 1.072-4.844 1.07-6.698 0-1.857-1.071-1.867-2.809-.024-3.881 1.845-1.072 4.846-1.072 6.701 0"/>
        <path stroke="#2459A8" stroke-linecap="round" stroke-linejoin="round" stroke-width="2" d="M221.357 120.862c1.856 1.071 1.866 2.809.021 3.881-1.844 1.072-4.844 1.07-6.698 0-1.857-1.071-1.867-2.809-.024-3.881 1.845-1.072 4.846-1.072 6.701 0z"/>
        <path fill="#FEEAB5" d="M200.18 6.91l.184 75.87c.006 2.458-1.73 5.475-3.859 6.703l-41.357 23.878c-3.175 1.833-5.78.333-5.789-3.333l-.184-75.87c-.006-2.458 1.73-5.474 3.859-6.702L194.39 3.577c3.175-1.833 5.78-.333 5.789 3.333"/>
        <path stroke="#B36428" stroke-linecap="round" stroke-linejoin="round" stroke-width="2" d="M200.18 6.91l.184 75.87c.006 2.458-1.73 5.475-3.859 6.703l-41.357 23.878c-3.175 1.833-5.78.333-5.789-3.333l-.184-75.87c-.006-2.458 1.73-5.474 3.859-6.702L194.39 3.577c3.175-1.833 5.78-.333 5.789 3.333z"/>
        <path stroke="#B26428" stroke-dasharray="2,6" stroke-linecap="round" stroke-linejoin="round" stroke-width="1.5" d="M187.572 72.487l-25.605-25.693M161.966 46.794l25.5-14.722M162.072 87.209l25.5-14.722"/>
        <path fill="#FFF8E9" d="M189.513 35.412c-1.071 1.854-2.81 1.865-3.88.02-1.073-1.844-1.072-4.844 0-6.698 1.07-1.857 2.808-1.868 3.88-.023 1.071 1.844 1.071 4.844 0 6.7"/>
        <path stroke="#B36428" stroke-linecap="round" stroke-linejoin="round" stroke-width="2" d="M189.513 35.412c-1.071 1.854-2.81 1.865-3.88.02-1.073-1.844-1.072-4.844 0-6.698 1.07-1.857 2.808-1.868 3.88-.023 1.071 1.844 1.071 4.844 0 6.7z"/>
        <path fill="#FFF8E9" d="M163.907 50.134c-1.071 1.855-2.809 1.865-3.88.02-1.073-1.844-1.072-4.843 0-6.698 1.071-1.856 2.808-1.867 3.88-.023s1.072 4.845 0 6.7"/>
        <path stroke="#B36428" stroke-linecap="round" stroke-linejoin="round" stroke-width="2" d="M163.907 50.134c-1.071 1.855-2.809 1.865-3.88.02-1.073-1.844-1.072-4.843 0-6.698 1.071-1.856 2.808-1.867 3.88-.023s1.072 4.845 0 6.7z"/>
        <path fill="#FFF8E9" d="M163.907 90.549c-1.071 1.854-2.809 1.864-3.88.02-1.073-1.843-1.072-4.843 0-6.698 1.071-1.857 2.808-1.867 3.88-.024 1.072 1.844 1.072 4.845 0 6.702"/>
        <path stroke="#B36428" stroke-linecap="round" stroke-linejoin="round" stroke-width="2" d="M163.907 90.549c-1.071 1.854-2.809 1.864-3.88.02-1.073-1.843-1.072-4.843 0-6.698 1.071-1.857 2.808-1.867 3.88-.024 1.072 1.844 1.072 4.845 0 6.702z"/>
        <path fill="#FFF8E9" d="M189.513 75.827c-1.071 1.854-2.81 1.864-3.88.02-1.073-1.844-1.072-4.844 0-6.7 1.07-1.855 2.808-1.866 3.88-.022 1.071 1.844 1.071 4.845 0 6.702"/>
        <path stroke="#B36428" stroke-linecap="round" stroke-linejoin="round" stroke-width="2" d="M189.513 75.827c-1.071 1.854-2.81 1.864-3.88.02-1.073-1.844-1.072-4.844 0-6.7 1.07-1.855 2.808-1.866 3.88-.022 1.071 1.844 1.071 4.845 0 6.702z"/>
        <path stroke="#7A8A9C" stroke-dasharray="2,6" stroke-linecap="round" stroke-linejoin="round" stroke-width="1.5" d="M34.068 70.84l38.614 22.293M79.885 28.286L9.957 68.658"/>
        <path fill="#F8ABAB" d="M70.241 25.335l-.057 20.047-21.017-12.134.057-20.048z"/>
        <path stroke="#AB3E54" stroke-linecap="round" stroke-linejoin="round" stroke-width="2" d="M70.241 25.335l-.057 20.047-21.017-12.134.057-20.048z"/>
        <path fill="#F17E80" d="M70.241 25.335l20.994-12.2-.057 20.046-20.994 12.201z"/>
        <path stroke="#AB3E54" stroke-linecap="round" stroke-linejoin="round" stroke-width="2" d="M70.241 25.335l20.994-12.2-.057 20.046-20.994 12.201z"/>
        <path fill="#DC4D57" d="M70.241 35.914l20.994-12.2-.057 9.467-20.994 12.201z"/>
        <path fill="#FACBCA" d="M49.224 13.2L70.218 1l21.017 12.134-20.993 12.2z"/>
        <path stroke="#AB3E54" stroke-linecap="round" stroke-linejoin="round" stroke-width="2" d="M49.224 13.2L70.218 1l21.017 12.134-20.993 12.2z"/>
        <path fill="#AB3E54" d="M66.224 26.427c.54.311.974 1.065.972 1.685-.002.618-.438.87-.978.558-.54-.312-.976-1.067-.974-1.685.002-.62.44-.87.98-.558M66.224 37.497c.54.312.974 1.066.972 1.686-.002.618-.438.869-.978.558-.54-.312-.976-1.068-.974-1.685.002-.62.44-.87.98-.559M53.193 18.842c.54.311.973 1.065.972 1.686-.002.617-.438.87-.979.557-.54-.311-.976-1.067-.974-1.685.002-.62.441-.87.981-.558M53.193 29.973c.54.312.973 1.066.972 1.686-.002.618-.438.87-.979.558-.54-.312-.976-1.067-.974-1.685.002-.62.441-.87.981-.559"/>
        <path stroke="#AB3E54" stroke-linecap="round" stroke-linejoin="round" stroke-width="2" d="M70.241 25.335l20.994-12.2-.057 20.046-20.994 12.201z"/>
        <path fill="#F8ABAB" d="M19.92 69.464a7.972 7.972 0 0 1-1.404-.158 6.801 6.801 0 0 1-1.076-.318 5.143 5.143 0 0 1-.688-.33l-14.33-8.273c-.588-.34-.991-.745-1.21-1.175a1.713 1.713 0 0 1-.198-.791L1 63.53c-.001.712.467 1.424 1.407 1.967l14.33 8.273c.216.124.446.235.688.33a6.303 6.303 0 0 0 1.076.317 7.995 7.995 0 0 0 1.893.156l.014-5.11a8.68 8.68 0 0 1-.488.001"/>
        <path stroke="#AB3E54" stroke-linecap="round" stroke-linejoin="round" stroke-width="2" d="M19.92 69.464a7.972 7.972 0 0 1-1.404-.158 6.801 6.801 0 0 1-1.076-.318 5.143 5.143 0 0 1-.688-.33l-14.33-8.273c-.588-.34-.991-.745-1.21-1.175a1.713 1.713 0 0 1-.198-.791L1 63.53c-.001.712.467 1.424 1.407 1.967l14.33 8.273c.216.124.446.235.688.33a6.303 6.303 0 0 0 1.076.317 7.995 7.995 0 0 0 1.893.156l.014-5.11a8.68 8.68 0 0 1-.488.001z"/>
        <path fill="#DC4D57" d="M39.104 58.584c-.004.05-.007.1-.017.15-.008.04-.02.081-.03.122-.013.047-.024.095-.04.143-.015.038-.034.077-.05.116-.022.05-.044.1-.07.148-.019.036-.042.07-.064.106a2.346 2.346 0 0 1-.112.167 2.58 2.58 0 0 1-.28.313c-.026.026-.05.052-.078.078-.046.041-.097.081-.147.12-.044.037-.086.072-.133.107-.054.039-.114.076-.172.114-.06.04-.118.08-.182.117l-14.237 8.274c-.319.184-.67.337-1.044.458a7.27 7.27 0 0 1-1.51.31c-.175.017-.352.03-.53.035l-.014 5.112a7.687 7.687 0 0 0 2.04-.344 5.388 5.388 0 0 0 1.043-.46l14.238-8.274c.02-.011.039-.022.058-.035.044-.025.081-.054.123-.081.058-.038.118-.076.172-.115.047-.034.09-.07.134-.105.05-.04.1-.08.146-.122l.03-.024c.018-.017.031-.036.05-.053a3.05 3.05 0 0 0 .202-.217c.013-.017.03-.032.044-.047.012-.017.02-.034.032-.05a1.87 1.87 0 0 0 .112-.166c.015-.024.034-.046.048-.07.006-.012.01-.025.016-.036.027-.05.049-.1.07-.148.013-.03.03-.058.041-.087l.008-.03c.017-.047.029-.094.041-.142.008-.033.022-.065.027-.097l.004-.025c.009-.05.012-.1.017-.151.003-.033.01-.065.011-.097v-.042l.015-5.112c0 .047-.007.093-.012.14"/>
        <path fill="#FACBCA" d="M37.71 56.48c1.867 1.077 1.876 2.825.02 3.905l-14.238 8.274c-1.855 1.077-4.873 1.077-6.74 0l-14.33-8.274C.555 59.307.545 57.558 2.399 56.48l14.238-8.275c1.857-1.079 4.875-1.079 6.742 0l14.331 8.273z"/>
        <path stroke="#AB3E54" stroke-linecap="round" stroke-linejoin="round" stroke-width="2" d="M37.71 56.48c1.867 1.077 1.876 2.825.02 3.905l-14.238 8.274c-1.855 1.077-4.873 1.077-6.74 0l-14.33-8.274C.555 59.307.545 57.558 2.399 56.48l14.238-8.275c1.857-1.079 4.875-1.079 6.742 0l14.331 8.273z"/>
        <path fill="#F17E80" d="M23.492 68.659l-.015 5.111c-1.855 1.078-4.873 1.078-6.74 0l.015-5.111c1.867 1.077 4.885 1.077 6.74 0"/>
        <path fill="#F8ABAB" d="M19.92 59.507a7.68 7.68 0 0 1-1.903-.281 6.042 6.042 0 0 1-.577-.195 5.143 5.143 0 0 1-.688-.33l-14.33-8.273c-.588-.34-.991-.745-1.21-1.175a1.713 1.713 0 0 1-.198-.791L1 53.574c-.001.711.467 1.423 1.407 1.966l14.33 8.274c.216.123.446.233.688.329a6.885 6.885 0 0 0 1.548.4 7.68 7.68 0 0 0 .933.076c.162.004.326.003.488-.002l.014-5.112a7.956 7.956 0 0 1-.488.002"/>
        <path stroke="#AB3E54" stroke-linecap="round" stroke-linejoin="round" stroke-width="2" d="M19.92 59.507a7.68 7.68 0 0 1-1.903-.281 6.042 6.042 0 0 1-.577-.195 5.143 5.143 0 0 1-.688-.33l-14.33-8.273c-.588-.34-.991-.745-1.21-1.175a1.713 1.713 0 0 1-.198-.791L1 53.574c-.001.711.467 1.423 1.407 1.966l14.33 8.274c.216.123.446.233.688.329a6.885 6.885 0 0 0 1.548.4 7.68 7.68 0 0 0 .933.076c.162.004.326.003.488-.002l.014-5.112a7.956 7.956 0 0 1-.488.002z"/>
        <path fill="#DC4D57" d="M39.104 48.627c-.004.05-.007.1-.017.15-.008.04-.02.082-.03.122-.013.048-.024.095-.04.143-.015.039-.034.077-.05.116-.022.05-.044.099-.07.148-.019.036-.042.07-.064.106a2.537 2.537 0 0 1-.112.167 2.573 2.573 0 0 1-.28.313c-.026.026-.05.052-.078.078-.046.04-.097.08-.147.121-.044.035-.086.071-.133.105-.054.04-.114.077-.172.115-.06.039-.118.079-.182.116l-14.237 8.275c-.319.184-.67.337-1.044.458-.29.094-.592.17-.903.225a7.948 7.948 0 0 1-1.136.12l-.015 5.112a7.985 7.985 0 0 0 1.137-.12c.31-.057.613-.13.903-.224a5.386 5.386 0 0 0 1.043-.46l14.238-8.274c.02-.01.039-.023.058-.034.044-.027.081-.055.123-.082.058-.038.118-.076.172-.115.047-.034.09-.07.134-.105.05-.04.1-.08.146-.121l.03-.025c.018-.017.031-.036.05-.053.072-.071.14-.143.202-.217.013-.016.03-.031.044-.048.012-.016.02-.033.032-.049.042-.055.078-.11.112-.166.015-.024.034-.047.048-.07l.016-.036c.027-.049.049-.099.07-.148.013-.03.03-.058.041-.087l.008-.03c.017-.047.029-.095.041-.142.008-.032.022-.065.027-.096l.004-.026c.009-.05.012-.1.017-.15.003-.033.01-.066.011-.098V53.6l.015-5.112c0 .047-.007.093-.012.14"/>
        <path fill="#FACBCA" d="M37.71 46.523c1.867 1.077 1.876 2.825.02 3.904l-14.238 8.275c-1.855 1.077-4.873 1.077-6.74 0l-14.33-8.274C.555 49.35.545 47.602 2.399 46.523l14.238-8.274c1.857-1.079 4.875-1.079 6.742-.001l14.331 8.275z"/>
        <path stroke="#AB3E54" stroke-linecap="round" stroke-linejoin="round" stroke-width="2" d="M37.71 46.523c1.867 1.077 1.876 2.825.02 3.904l-14.238 8.275c-1.855 1.077-4.873 1.077-6.74 0l-14.33-8.274C.555 49.35.545 47.602 2.399 46.523l14.238-8.274c1.857-1.079 4.875-1.079 6.742-.001l14.331 8.275z"/>
        <path fill="#F17E80" d="M23.492 58.702l-.015 5.111c-1.855 1.078-4.873 1.079-6.74 0l.015-5.111c1.867 1.077 4.885 1.077 6.74 0"/>
        <path stroke="#AB3E54" stroke-linecap="round" stroke-linejoin="round" stroke-width="2" d="M39.104 48.627c-.004.05-.007.1-.017.15-.007.04-.02.082-.03.122-.013.048-.024.095-.041.143-.014.039-.033.077-.05.116-.02.05-.042.099-.069.148-.02.036-.042.07-.064.106a2.537 2.537 0 0 1-.189.263 2.586 2.586 0 0 1-.203.217c-.026.026-.05.052-.078.077-.046.042-.097.082-.147.122-.044.035-.086.071-.134.105-.053.04-.113.077-.172.115-.059.039-.116.079-.18.116L23.49 58.702a5.42 5.42 0 0 1-1.044.458 6.78 6.78 0 0 1-.902.225 7.986 7.986 0 0 1-2.094.097 8.507 8.507 0 0 1-.936-.134 6.777 6.777 0 0 1-1.075-.317 5.193 5.193 0 0 1-.688-.329l-14.33-8.274c-.587-.34-.991-.745-1.21-1.175a1.722 1.722 0 0 1-.197-.79L1 53.572c-.002.712.468 1.424 1.406 1.966l14.332 8.275c.215.123.445.233.687.329a6.386 6.386 0 0 0 1.075.317 7.907 7.907 0 0 0 2.423.122c.205-.021.408-.05.608-.085.31-.057.613-.13.902-.224a5.416 5.416 0 0 0 1.044-.46l14.238-8.274c.02-.01.039-.023.058-.034.044-.027.082-.055.122-.082.06-.038.12-.076.173-.115.048-.034.09-.07.133-.105.05-.04.102-.08.147-.121.01-.009.021-.016.03-.025.019-.017.031-.036.05-.053.073-.071.14-.143.201-.217.014-.016.032-.032.044-.048.014-.016.021-.033.034-.049.04-.055.077-.11.112-.166.014-.024.033-.047.046-.07l.018-.036c.027-.05.047-.099.069-.148.013-.03.03-.058.04-.087.005-.01.006-.02.009-.03.017-.047.029-.095.042-.142.008-.032.02-.065.027-.096.002-.009.002-.018.002-.026.01-.05.014-.1.018-.15.003-.033.01-.066.012-.098V53.6l.014-5.112c0 .047-.007.093-.012.14z"/>
        <path stroke="#AB3E54" stroke-linecap="round" stroke-linejoin="round" stroke-width="2" d="M39.104 58.594c-.004.05-.007.1-.017.15-.007.04-.02.081-.03.122-.013.047-.024.095-.041.143-.014.038-.033.077-.05.116-.02.05-.042.1-.069.148-.02.036-.042.071-.064.106a2.346 2.346 0 0 1-.392.48c-.026.026-.05.052-.078.078-.046.041-.097.081-.147.121-.044.036-.086.072-.134.106-.053.039-.113.076-.172.114-.059.04-.116.08-.18.117L23.49 68.669c-.317.184-.669.337-1.044.459a7.27 7.27 0 0 1-1.51.31 7.986 7.986 0 0 1-1.486.011 7.756 7.756 0 0 1-.936-.134A6.78 6.78 0 0 1 17.44 69a5.196 5.196 0 0 1-.688-.33l-14.33-8.274c-.587-.34-.991-.744-1.21-1.175a1.719 1.719 0 0 1-.197-.79L1 63.54c-.002.711.468 1.423 1.406 1.965l14.332 8.275c.215.124.445.234.687.33a6.995 6.995 0 0 0 1.549.4 8.475 8.475 0 0 0 1.42.073c.177-.006.354-.017.529-.036.205-.02.408-.048.608-.084.31-.056.613-.13.902-.225.374-.12.726-.274 1.044-.458l14.238-8.275c.02-.011.039-.022.058-.035.044-.025.082-.054.122-.081.06-.038.12-.076.173-.115.048-.034.09-.07.133-.104.05-.041.102-.081.147-.123.01-.008.021-.015.03-.024.019-.017.031-.036.05-.053.073-.071.14-.143.201-.217.014-.017.032-.032.044-.048.014-.016.021-.033.034-.05.04-.053.077-.109.112-.165.014-.024.033-.046.046-.07l.018-.036c.027-.05.047-.099.069-.148.013-.03.03-.058.04-.087.005-.01.006-.02.009-.03.017-.047.029-.095.042-.142.008-.033.02-.064.027-.097.002-.008.002-.016.002-.025.01-.05.014-.1.018-.151.003-.032.01-.065.012-.097v-.042l.014-5.111c0 .046-.007.093-.012.14zM30.987 54.346v4.779M30.987 64.617v4.348"/>
        <path fill="#F8ABAB" d="M86.31 87.465l-.018 5.726c-.007 2.38-1.57 4.757-4.696 6.573-6.29 3.655-16.518 3.652-22.844 0-3.186-1.84-4.778-4.254-4.771-6.666l.018-5.725c-.007 2.41 1.585 4.825 4.771 6.665 6.327 3.653 16.555 3.656 22.844 0 3.125-1.816 4.689-4.193 4.696-6.573"/>
        <path stroke="#AB3E54" stroke-linecap="round" stroke-linejoin="round" stroke-width="2" d="M86.31 87.465l-.018 5.726c-.007 2.38-1.57 4.757-4.696 6.573-6.29 3.655-16.518 3.652-22.844 0-3.186-1.84-4.778-4.254-4.771-6.666l.018-5.725c-.007 2.41 1.585 4.825 4.771 6.665 6.327 3.653 16.555 3.656 22.844 0 3.125-1.816 4.689-4.193 4.696-6.573z"/>
        <path fill="#FACBCA" d="M81.544 80.804c6.326 3.652 6.359 9.579.07 13.234-6.29 3.655-16.518 3.653-22.844 0-6.33-3.655-6.368-9.58-.078-13.234 6.289-3.655 16.521-3.655 22.852 0"/>
        <path stroke="#AB3E54" stroke-linecap="round" stroke-linejoin="round" stroke-width="2" d="M81.544 80.804c6.326 3.652 6.359 9.579.07 13.234-6.29 3.655-16.518 3.653-22.844 0-6.33-3.655-6.368-9.58-.078-13.234 6.289-3.655 16.521-3.655 22.852 0z"/>
        <path fill="#F17E80" d="M66.834 96.567l-.006 5.728c2.223.272 4.52.271 6.74-.003l.006-5.724c-2.22.272-4.517.272-6.74-.001"/>
        <path stroke="#AB3E54" stroke-linecap="round" stroke-linejoin="round" stroke-width="2" d="M86.31 87.465l-.018 5.726c-.007 2.38-1.57 4.757-4.696 6.573-6.29 3.655-16.518 3.652-22.844 0-3.186-1.84-4.778-4.254-4.771-6.666l.018-5.725c-.007 2.41 1.585 4.825 4.771 6.665 6.327 3.653 16.555 3.656 22.844 0 3.125-1.816 4.689-4.193 4.696-6.573z"/>
        <path fill="#AB3E54" d="M63.035 90.498c0 .537-.723.973-1.614.973-.892 0-1.616-.436-1.616-.973 0-.537.724-.972 1.616-.972.89 0 1.614.435 1.614.972"/>
        <path stroke="#7A8A9C" stroke-dasharray="2,6" stroke-linecap="round" stroke-linejoin="round" stroke-width="1.5" d="M288.46 28.565l-61.971 35.778M226.489 64.343l57.488 33.191M269.725 34.973l46.07 26.6"/>
        <path fill="#D2EBFA" d="M273.314 42.708a8.01 8.01 0 0 1-1.405-.159 6.677 6.677 0 0 1-1.075-.318 5.243 5.243 0 0 1-.688-.329l-14.33-8.274c-.588-.339-.991-.744-1.21-1.174a1.722 1.722 0 0 1-.197-.792l-.015 5.112c-.002.712.468 1.424 1.407 1.966l14.331 8.274c.215.125.445.233.687.33a6.39 6.39 0 0 0 1.075.317 7.366 7.366 0 0 0 .936.133 7.955 7.955 0 0 0 .958.022l.015-5.11a8.709 8.709 0 0 1-.489.002"/>
        <path stroke="#2459A8" stroke-linecap="round" stroke-linejoin="round" stroke-width="2" d="M273.314 42.708a8.01 8.01 0 0 1-1.405-.159 6.677 6.677 0 0 1-1.075-.318 5.243 5.243 0 0 1-.688-.329l-14.33-8.274c-.588-.339-.991-.744-1.21-1.174a1.722 1.722 0 0 1-.197-.792l-.015 5.112c-.002.712.468 1.424 1.407 1.966l14.331 8.274c.215.125.445.233.687.33a6.39 6.39 0 0 0 1.075.317 7.366 7.366 0 0 0 .936.133 7.955 7.955 0 0 0 .958.022l.015-5.11a8.709 8.709 0 0 1-.489.002z"/>
        <path fill="#68B9E7" d="M292.498 31.827c-.004.05-.007.1-.017.15-.007.04-.02.082-.03.122-.013.048-.024.096-.04.143-.015.038-.034.078-.05.117-.022.049-.043.099-.07.148-.019.035-.042.07-.064.105a1.893 1.893 0 0 1-.19.263 2.58 2.58 0 0 1-.201.218c-.027.025-.051.051-.08.077-.045.042-.097.081-.146.121-.044.036-.086.072-.133.106-.054.039-.114.076-.173.115-.06.039-.116.079-.18.116l-14.238 8.274c-.318.184-.67.337-1.044.459a7.24 7.24 0 0 1-1.51.31c-.176.016-.352.029-.529.035l-.015 5.111a7.986 7.986 0 0 0 1.137-.12c.31-.056.613-.13.902-.225a5.466 5.466 0 0 0 1.045-.458l14.237-8.274.058-.035c.044-.026.08-.054.123-.082.059-.038.118-.075.172-.114.048-.035.09-.07.133-.105.05-.04.101-.08.148-.122.009-.009.02-.016.029-.024.018-.018.031-.036.05-.054.073-.071.14-.143.202-.217.013-.016.031-.031.044-.047l.032-.05c.042-.054.078-.11.112-.165.015-.024.034-.047.048-.071.007-.012.01-.024.016-.036.028-.049.048-.098.07-.148.013-.03.03-.058.04-.087l.01-.03c.016-.046.027-.094.04-.142.009-.033.021-.064.028-.097l.003-.024c.01-.05.013-.101.017-.152.003-.032.01-.064.01-.097.002-.013.002-.027.002-.042l.015-5.111c0 .046-.009.093-.013.14"/>
        <path fill="#D2EBFA" d="M291.104 29.723c1.867 1.077 1.877 2.825.02 3.905l-14.238 8.274c-1.855 1.078-4.873 1.078-6.74 0l-14.33-8.274c-1.867-1.078-1.877-2.826-.023-3.903l14.238-8.275c1.858-1.08 4.876-1.08 6.743-.001l14.33 8.274z"/>
        <path stroke="#2459A8" stroke-linecap="round" stroke-linejoin="round" stroke-width="2" d="M291.104 29.723c1.867 1.077 1.877 2.825.02 3.905l-14.238 8.274c-1.855 1.078-4.873 1.078-6.74 0l-14.33-8.274c-1.867-1.078-1.877-2.826-.023-3.903l14.238-8.275c1.858-1.08 4.876-1.08 6.743-.001l14.33 8.274z"/>
        <path fill="#95D0F1" d="M276.885 41.902l-.014 5.112c-1.854 1.078-4.873 1.078-6.739 0l.015-5.112c1.866 1.077 4.885 1.077 6.738 0"/>
        <path fill="#D2EBFA" d="M273.314 32.75a7.757 7.757 0 0 1-1.902-.281 6.059 6.059 0 0 1-.578-.194 5.243 5.243 0 0 1-.688-.33l-14.33-8.273c-.588-.34-.991-.745-1.21-1.175a1.722 1.722 0 0 1-.197-.791l-.015 5.111c-.002.712.468 1.423 1.407 1.966l14.331 8.274c.215.124.445.234.687.33.187.073.38.138.578.195a6.995 6.995 0 0 0 .97.204 7.833 7.833 0 0 0 .933.077c.163.004.326.003.488-.003l.015-5.112a7.983 7.983 0 0 1-.489.003"/>
        <path stroke="#2459A8" stroke-linecap="round" stroke-linejoin="round" stroke-width="2" d="M273.314 32.75a7.757 7.757 0 0 1-1.902-.281 6.059 6.059 0 0 1-.578-.194 5.243 5.243 0 0 1-.688-.33l-14.33-8.273c-.588-.34-.991-.745-1.21-1.175a1.722 1.722 0 0 1-.197-.791l-.015 5.111c-.002.712.468 1.423 1.407 1.966l14.331 8.274c.215.124.445.234.687.33.187.073.38.138.578.195a6.995 6.995 0 0 0 .97.204 7.833 7.833 0 0 0 .933.077c.163.004.326.003.488-.003l.015-5.112a7.983 7.983 0 0 1-.489.003z"/>
        <path fill="#68B9E7" d="M292.498 21.87c-.004.05-.007.1-.017.15-.007.041-.02.082-.03.123-.013.047-.024.095-.04.142-.015.04-.034.077-.05.116-.022.05-.043.1-.07.148-.019.036-.042.071-.064.107a2.013 2.013 0 0 1-.19.262c-.06.074-.128.147-.201.217-.027.026-.051.053-.08.079-.045.04-.097.08-.146.12-.044.036-.086.072-.133.106-.054.04-.114.076-.173.114-.06.04-.116.08-.18.117l-14.238 8.274c-.318.185-.67.337-1.044.46-.29.092-.592.168-.902.224a7.923 7.923 0 0 1-1.136.12l-.016 5.111a7.985 7.985 0 0 0 1.137-.12c.31-.055.613-.13.902-.224a5.416 5.416 0 0 0 1.045-.459l14.237-8.275c.02-.01.04-.022.058-.034.044-.026.08-.055.123-.081.059-.038.118-.077.172-.116.048-.034.09-.07.133-.104.05-.04.101-.081.148-.122l.029-.025c.018-.016.031-.035.05-.053.073-.07.14-.143.202-.217.013-.016.031-.03.044-.047l.032-.05c.042-.054.078-.11.112-.166.015-.024.034-.046.048-.07.007-.011.01-.024.016-.035.028-.05.048-.1.07-.149.013-.03.03-.057.04-.086l.01-.03c.016-.048.027-.095.04-.143.009-.032.021-.064.028-.096.002-.008.002-.017.003-.026.01-.05.013-.1.017-.15.003-.033.01-.065.01-.097.002-.015.002-.029.002-.043l.015-5.111c0 .046-.009.093-.013.14"/>
        <path fill="#EAF7FE" d="M291.104 19.766c1.867 1.077 1.877 2.826.02 3.905l-14.238 8.274c-1.855 1.078-4.873 1.078-6.74 0l-14.33-8.274c-1.867-1.078-1.877-2.826-.023-3.904l14.238-8.274c1.858-1.08 4.876-1.08 6.743 0l14.33 8.273z"/>
        <path stroke="#2459A8" stroke-linecap="round" stroke-linejoin="round" stroke-width="2" d="M291.104 19.766c1.867 1.077 1.877 2.826.02 3.905l-14.238 8.274c-1.855 1.078-4.873 1.078-6.74 0l-14.33-8.274c-1.867-1.078-1.877-2.826-.023-3.904l14.238-8.274c1.858-1.08 4.876-1.08 6.743 0l14.33 8.273z"/>
        <path fill="#95D0F1" d="M276.885 31.945l-.014 5.112c-1.854 1.078-4.873 1.078-6.739 0l.015-5.112c1.866 1.078 4.885 1.078 6.738 0"/>
        <path stroke="#2459A8" stroke-linecap="round" stroke-linejoin="round" stroke-width="2" d="M292.498 21.87c-.004.05-.007.1-.017.15-.007.041-.02.082-.03.123-.013.047-.024.095-.04.142-.015.04-.033.077-.05.116-.022.05-.043.1-.07.148-.018.036-.042.071-.064.107a2.013 2.013 0 0 1-.19.262c-.06.074-.127.147-.201.217-.026.026-.051.053-.08.079-.045.04-.097.08-.146.12-.044.036-.086.072-.133.106-.054.04-.114.076-.173.114-.06.04-.116.08-.18.117l-14.238 8.274c-.318.185-.67.337-1.044.46-.29.092-.592.168-.902.224a7.923 7.923 0 0 1-1.625.122 8.57 8.57 0 0 1-1.406-.16 6.755 6.755 0 0 1-1.076-.316 5.182 5.182 0 0 1-.687-.33l-14.331-8.273c-.587-.34-.99-.745-1.21-1.175a1.722 1.722 0 0 1-.196-.791l-.015 5.111c-.002.712.468 1.423 1.407 1.965l14.331 8.275c.216.124.445.234.687.33a6.386 6.386 0 0 0 1.076.316 7.907 7.907 0 0 0 3.03.037c.31-.056.613-.13.902-.224a5.416 5.416 0 0 0 1.045-.459l14.237-8.275c.02-.01.04-.022.058-.034.044-.026.08-.055.123-.081.058-.038.118-.077.172-.116.048-.034.09-.07.133-.104.051-.04.101-.081.148-.122l.03-.025c.017-.016.03-.035.049-.053.072-.07.14-.143.202-.217.013-.016.031-.032.044-.047.012-.017.02-.034.032-.05.042-.054.078-.11.112-.166.015-.024.034-.046.048-.07.007-.011.01-.024.016-.035.028-.05.048-.1.07-.149.013-.03.03-.057.04-.086l.01-.03c.016-.048.027-.095.04-.143.009-.032.021-.064.028-.096.002-.008.002-.017.003-.026.01-.05.013-.1.016-.15.004-.033.011-.065.012-.097v-.043l.016-5.111c0 .046-.008.093-.013.14z"/>
        <path stroke="#2459A8" stroke-linecap="round" stroke-linejoin="round" stroke-width="2" d="M292.498 31.838c-.004.05-.007.1-.017.15-.007.04-.02.08-.03.121-.013.048-.024.095-.04.143-.015.039-.033.078-.05.117-.022.049-.043.099-.07.148-.018.035-.042.07-.064.105a1.893 1.893 0 0 1-.19.263 2.45 2.45 0 0 1-.201.218c-.026.026-.051.051-.08.077-.045.042-.097.082-.146.121-.044.036-.086.072-.133.106-.054.04-.114.077-.173.115-.06.039-.116.079-.18.116l-14.238 8.274c-.318.185-.67.338-1.044.459a7.24 7.24 0 0 1-1.51.31 7.923 7.923 0 0 1-1.487.012 7.805 7.805 0 0 1-.936-.134 6.757 6.757 0 0 1-1.076-.317 5.185 5.185 0 0 1-.687-.33l-14.331-8.274c-.587-.339-.99-.744-1.21-1.174a1.719 1.719 0 0 1-.196-.791l-.015 5.112c-.002.71.468 1.423 1.407 1.965l14.331 8.275c.216.123.445.233.687.329a6.386 6.386 0 0 0 1.076.316 7.292 7.292 0 0 0 .936.135 8.791 8.791 0 0 0 .957.023 7.948 7.948 0 0 0 1.137-.12c.31-.057.613-.131.902-.225a5.466 5.466 0 0 0 1.045-.458l14.237-8.275.058-.035c.044-.026.08-.054.123-.082.058-.038.118-.075.172-.114.048-.034.09-.07.133-.105.051-.04.101-.08.148-.122.009-.009.02-.016.03-.024.017-.018.03-.036.049-.054a3.05 3.05 0 0 0 .202-.217c.013-.016.031-.031.044-.047l.032-.05a1.87 1.87 0 0 0 .112-.165c.015-.024.034-.047.048-.07.007-.013.01-.025.016-.037.028-.049.048-.099.07-.148.013-.03.03-.058.04-.087l.01-.03c.016-.046.027-.094.04-.142.009-.032.021-.064.028-.096l.003-.025c.01-.05.013-.1.016-.152.004-.032.011-.064.012-.097v-.041l.016-5.112c0 .046-.008.093-.013.14zM284.38 27.59v4.779M284.38 37.86v4.348"/>
        <path fill="#D2EBFA" d="M273.51 86.006l-.057 20.047-21.018-12.134.057-20.048z"/>
        <path stroke="#2459A8" stroke-linecap="round" stroke-linejoin="round" stroke-width="2" d="M273.51 86.006l-.057 20.047-21.018-12.134.057-20.048z"/>
        <path fill="#95D0F1" d="M273.51 86.006l20.993-12.201-.057 20.047-20.993 12.2z"/>
        <path stroke="#2459A8" stroke-linecap="round" stroke-linejoin="round" stroke-width="2" d="M273.51 86.006l20.993-12.201-.057 20.047-20.993 12.2z"/>
        <path fill="#68B9E7" d="M273.51 96.585l20.993-12.2-.057 9.468-20.993 12.2z"/>
        <path fill="#EAF7FE" d="M252.492 73.872l20.994-12.201 21.016 12.134-20.993 12.201z"/>
        <path stroke="#2459A8" stroke-linecap="round" stroke-linejoin="round" stroke-width="2" d="M252.492 73.872l20.994-12.201 21.016 12.134-20.993 12.201z"/>
        <path fill="#2459A8" d="M269.492 87.098c.54.311.974 1.065.972 1.686-.002.617-.438.868-.978.557-.54-.311-.976-1.067-.975-1.685.002-.62.442-.87.981-.558M269.492 98.168c.54.312.974 1.066.972 1.685-.002.619-.438.87-.978.558-.54-.312-.976-1.066-.975-1.684.002-.62.442-.87.981-.559M256.46 79.513c.54.312.974 1.066.973 1.686-.003.617-.44.868-.979.557-.54-.311-.976-1.067-.974-1.684.002-.62.442-.87.98-.56M256.46 90.645c.54.311.974 1.065.973 1.685-.003.618-.44.87-.979.557-.54-.311-.976-1.066-.974-1.684.002-.62.442-.87.98-.558"/>
        <path stroke="#2459A8" stroke-linecap="round" stroke-linejoin="round" stroke-width="2" d="M273.51 86.006l20.993-12.201-.057 20.047-20.993 12.2z"/>
        <path fill="#D2EBFA" d="M340.977 57.876l-.018 5.726c-.007 2.38-1.57 4.757-4.696 6.573-6.289 3.655-16.517 3.653-22.843 0-3.187-1.84-4.779-4.254-4.773-6.665l.019-5.726c-.007 2.41 1.585 4.825 4.771 6.665 6.326 3.653 16.555 3.655 22.844 0 3.125-1.816 4.689-4.193 4.696-6.573"/>
        <path stroke="#2459A8" stroke-linecap="round" stroke-linejoin="round" stroke-width="2" d="M340.977 57.876l-.018 5.726c-.007 2.38-1.57 4.757-4.696 6.573-6.289 3.655-16.517 3.653-22.843 0-3.187-1.84-4.779-4.254-4.773-6.665l.019-5.726c-.007 2.41 1.585 4.825 4.771 6.665 6.326 3.653 16.555 3.655 22.844 0 3.125-1.816 4.689-4.193 4.696-6.573z"/>
        <path fill="#EAF7FE" d="M336.211 51.215c6.325 3.652 6.36 9.579.07 13.234-6.289 3.654-16.517 3.653-22.844 0-6.33-3.655-6.368-9.579-.077-13.234 6.288-3.655 16.52-3.655 22.851 0"/>
        <path stroke="#2459A8" stroke-linecap="round" stroke-linejoin="round" stroke-width="2" d="M336.211 51.215c6.325 3.652 6.36 9.579.07 13.234-6.289 3.654-16.517 3.653-22.844 0-6.33-3.655-6.368-9.579-.077-13.234 6.288-3.655 16.52-3.655 22.851 0z"/>
        <path fill="#68B9E7" d="M321.502 66.977l-.007 5.728a27.78 27.78 0 0 0 6.74-.003l.005-5.724a27.773 27.773 0 0 1-6.738 0"/>
        <path stroke="#2459A8" stroke-linecap="round" stroke-linejoin="round" stroke-width="2" d="M340.977 57.876l-.018 5.726c-.007 2.38-1.57 4.757-4.696 6.573-6.289 3.655-16.517 3.653-22.843 0-3.187-1.84-4.779-4.254-4.773-6.665l.019-5.726c-.007 2.41 1.585 4.825 4.771 6.665 6.326 3.653 16.555 3.655 22.844 0 3.125-1.816 4.689-4.193 4.696-6.573z"/>
        <path fill="#2459A8" d="M317.826 60.901c0 .56-.752 1.014-1.68 1.014-.93 0-1.683-.454-1.683-1.014s.754-1.012 1.682-1.012c.929 0 1.681.453 1.681 1.012"/>
    </g>
</svg>
