<?xml version="1.0" encoding="UTF-8"?>
<svg width="93px" height="12px" viewBox="0 0 93 12" version="1.1" xmlns="http://www.w3.org/2000/svg" xmlns:xlink="http://www.w3.org/1999/xlink">
    <!-- Generator: Sketch 48.2 (47327) - http://www.bohemiancoding.com/sketch -->
    <title>nutanix-seeklogo.com</title>
    <desc>Created with Sketch.</desc>
    <defs></defs>
    <g id="Nutanix" stroke="none" stroke-width="1" fill="none" fill-rule="evenodd" transform="translate(-594.000000, -748.000000)">
        <g id="nutanix-seeklogo.com" transform="translate(594.000000, 748.000000)" fill="#DBDFE1">
            <path d="M79.1551837,11.772 C79.1076735,11.812898 79.0459592,11.8349388 78.9827755,11.8349388 L75.6154286,11.8349388 C75.508898,11.8349388 75.4050612,11.7786122 75.3612245,11.6813878 C75.3105306,11.5694694 75.3399184,11.4389388 75.4315102,11.3632653 L81.5764898,6.18808163 C81.7133878,6.0724898 81.7138776,5.86163265 81.5772245,5.74579592 L75.4408163,0.535591837 C75.3663673,0.472163265 75.3230204,0.375183673 75.3399184,0.278938776 C75.3629388,0.14644898 75.4765714,0.0560816327 75.604898,0.0560816327 L78.8453878,0.0560816327 C78.9075918,0.0560816327 78.9680816,0.078122449 79.0177959,0.11877551 L85.7049796,5.74408163 L85.7654694,5.7957551 C85.8683265,5.88342857 85.8710204,6.04138776 85.7713469,6.13273469 L85.7052245,6.19322449 L79.1551837,11.772" id="Fill-1"></path>
            <path d="M13.4931429,0.138367347 L11.438449,0.138367347 C11.1920816,0.138367347 10.9902857,0.340163265 10.9902857,0.58677551 L10.9902857,7.22791837 C10.9902857,7.38391837 10.8066122,7.46767347 10.6888163,7.36506122 L3.0837551,0.744244898 C2.56530612,0.293142857 2.00179592,0.0634285714 1.40718367,0.0634285714 C0.882367347,0.0634285714 0,0.277714286 0,1.71085714 L0,11.3189388 C0,11.5665306 0.200571429,11.767102 0.448163265,11.767102 L2.50163265,11.767102 C2.74897959,11.767102 2.94955102,11.5665306 2.94955102,11.3191837 L2.94955102,4.65036735 C2.94955102,4.49412245 3.13346939,4.41061224 3.25126531,4.51346939 L10.9366531,11.234449 C11.4129796,11.6571429 11.9309388,11.8714286 12.4763265,11.8714286 C13.0234286,11.8714286 13.9408163,11.6475918 13.9408163,10.1485714 L13.9408163,0.586285714 C13.9408163,0.339918367 13.7392653,0.138367347 13.4931429,0.138367347" id="Fill-2"></path>
            <path d="M28.5232653,0.138367347 L26.1350204,0.138367347 C25.9890612,0.138367347 25.8690612,0.257387755 25.8690612,0.404326531 L25.8690612,8.18204082 C25.8690612,8.82269388 25.0736327,9.14767347 23.5035918,9.14767347 L20.2555102,9.14767347 C18.6560816,9.14767347 17.844,8.82269388 17.844,8.18204082 L17.844,0.404326531 C17.844,0.257387755 17.7249796,0.138367347 17.5777959,0.138367347 L15.1601633,0.138367347 C15.0127347,0.138367347 14.8934694,0.257387755 14.8934694,0.404326531 L14.8934694,8.30155102 C14.8934694,8.84938776 14.9862857,9.32204082 15.1665306,9.70702041 C15.3460408,10.0875918 15.590449,10.4150204 15.8938776,10.6802449 C16.1909388,10.9393469 16.5399184,11.1453061 16.9288163,11.2910204 C17.3062041,11.4337959 17.7039184,11.5410612 18.1087347,11.6118367 C18.5115918,11.6845714 18.9308571,11.7281633 19.3550204,11.7443265 C19.7681633,11.7595102 20.1565714,11.767102 20.5204898,11.767102 L23.1634286,11.767102 C25.1035102,11.767102 26.4842449,11.4986939 27.3857143,10.9474286 C28.3173061,10.3773061 28.7899592,9.48783673 28.7899592,8.30155102 L28.7899592,0.404326531 C28.7899592,0.257387755 28.6699592,0.138367347 28.5232653,0.138367347" id="Fill-3"></path>
            <path d="M42.4861224,2.19085714 L42.4861224,0.660244898 C42.4861224,0.363918367 42.2461224,0.123918367 41.9497959,0.123918367 L30.268898,0.123918367 C29.9725714,0.123918367 29.7323265,0.364163265 29.7323265,0.660489796 L29.7323265,2.19085714 C29.7323265,2.48718367 29.9725714,2.72767347 30.2691429,2.72767347 L34.3552653,2.72767347 C34.5046531,2.72767347 34.6258776,2.84865306 34.6258776,2.99804082 L34.6258776,11.2305306 C34.6258776,11.5268571 34.8661224,11.767102 35.162449,11.767102 L37.0395918,11.767102 C37.3361633,11.767102 37.5766531,11.5266122 37.5766531,11.2302857 L37.5766531,2.99804082 C37.5766531,2.84865306 37.6976327,2.72767347 37.8470204,2.72767347 L41.9493061,2.72767347 C42.2458776,2.72767347 42.4861224,2.48742857 42.4861224,2.19085714" id="Fill-4"></path>
            <path d="M45.5475918,5.92408163 L47.0439184,3.77338776 C47.1122449,3.67469388 47.2579592,3.67420408 47.3272653,3.77216327 L48.8414694,5.90767347 C48.912,6.00685714 48.8409796,6.1442449 48.7192653,6.1442449 L45.6626939,6.1442449 C45.549551,6.1442449 45.4829388,6.01689796 45.5475918,5.92408163 L45.5475918,5.92408163 Z M48.8402449,0.92522449 C48.4378776,0.363428571 47.9052245,0.078122449 47.2569796,0.078122449 C46.617551,0.078122449 46.0900408,0.368816327 45.6866939,0.943836735 L38.4813061,11.3483265 C38.4124898,11.4472653 38.4173878,11.5819592 38.5006531,11.6769796 C38.5547755,11.738449 38.6373061,11.767102 38.719102,11.767102 L41.5515918,11.767102 C41.6417143,11.767102 41.726449,11.7210612 41.7754286,11.6453878 L43.5849796,8.86138776 C43.6246531,8.80040816 43.6922449,8.76367347 43.7649796,8.76367347 C43.7649796,8.76367347 49.7980408,8.76220408 50.7112653,8.76342857 C50.7837551,8.76342857 50.8506122,8.79967347 50.8905306,8.86016327 L52.7409796,11.6475918 C52.7899592,11.7222857 52.8734694,11.767102 52.9628571,11.767102 L55.6812245,11.767102 C55.7789388,11.767102 55.8697959,11.7127347 55.9155918,11.6248163 C55.9621224,11.5378776 55.9564898,11.4328163 55.9013878,11.3512653 L48.8402449,0.92522449 L48.8402449,0.92522449 Z" id="Fill-5"></path>
            <path d="M70.0956735,0.138367347 L67.9844082,0.138367347 C67.7529796,0.138367347 67.5651429,0.326204082 67.5651429,0.557877551 L67.5651429,7.29036735 C67.5651429,7.42212245 67.4101224,7.49265306 67.3106939,7.40620408 L59.6588571,0.744244898 C59.1406531,0.293142857 58.5761633,0.0634285714 57.9808163,0.0634285714 C57.456,0.0634285714 56.5741224,0.277714286 56.5741224,1.71085714 L56.5741224,11.3473469 C56.5741224,11.5782857 56.7629388,11.767102 56.9938776,11.767102 L59.1044082,11.767102 C59.3363265,11.767102 59.5244082,11.5790204 59.5244082,11.347102 L59.5244082,4.58767347 C59.5244082,4.45567347 59.6796735,4.38538776 59.779102,4.47208163 L67.5115102,11.234449 C67.9873469,11.6571429 68.5057959,11.8714286 69.0511837,11.8714286 C69.5977959,11.8714286 70.5156735,11.6475918 70.5156735,10.1485714 L70.5156735,0.558367347 C70.5156735,0.32644898 70.3275918,0.138367347 70.0956735,0.138367347" id="Fill-6"></path>
            <path d="M74.1389388,0.138367347 L71.7222857,0.138367347 C71.575102,0.138367347 71.4560816,0.257387755 71.4560816,0.404326531 L71.4560816,11.500898 C71.4560816,11.6475918 71.575102,11.767102 71.7222857,11.767102 L74.1389388,11.767102 C74.2858776,11.767102 74.4056327,11.6475918 74.4056327,11.500898 L74.4056327,0.404326531 C74.4056327,0.257387755 74.2858776,0.138367347 74.1389388,0.138367347" id="Fill-7"></path>
            <path d="M86.7374694,4.99297959 C86.8447347,5.08432653 87.0026939,5.08432653 87.1099592,4.99322449 L92.4737143,0.535591837 C92.5481633,0.472163265 92.5912653,0.375183673 92.5746122,0.278938776 C92.5515918,0.14644898 92.4377143,0.0560816327 92.3096327,0.0560816327 L89.0691429,0.0560816327 C89.0069388,0.0560816327 88.946449,0.078122449 88.8967347,0.11877551 L85.132898,3.18710204 C84.9967347,3.30171429 84.9962449,3.51110204 85.1316735,3.62644898 L86.7374694,4.99297959" id="Fill-8"></path>
            <path d="M86.7193469,6.94187755 C86.8268571,6.85053061 86.9845714,6.85028571 87.0920816,6.94163265 L92.5356735,11.3875102 C92.6101224,11.4506939 92.6532245,11.5479184 92.6365714,11.6441633 C92.613551,11.7764082 92.4996735,11.8670204 92.3715918,11.8670204 L89.1308571,11.8670204 C89.068898,11.8670204 89.0084082,11.8449796 88.9586939,11.8043265 L85.2183673,8.68995918 C85.0822041,8.57534694 85.0817143,8.36595918 85.2171429,8.25061224 L86.7193469,6.94187755" id="Fill-9"></path>
        </g>
    </g>
</svg>