<svg viewBox="0 0 24 22" xmlns="http://www.w3.org/2000/svg" xmlns:xlink="http://www.w3.org/1999/xlink">
  <path d="M4,0 L11.3431458,0 L11.3431458,2.66453526e-15 C12.4040117,2.46965734e-15 13.4214274,0.421427361 14.1715729,1.17157288 L21.1715729,8.17157288 L21.1715729,8.17157288 C22.73367,9.73367004 22.73367,12.26633 21.1715729,13.8284271 L14.1715729,20.8284271 L14.1715729,20.8284271 C13.4214274,21.5785726 12.4040117,22 11.3431458,22 L4,22 L4,0 Z" fill="#fff"></path><path d="M0,0 L7.34314575,0 L7.34314575,2.66453526e-15 C8.40401171,2.46965734e-15 9.42142736,0.421427361 10.1715729,1.17157288 L18.5857864,9.58578644 L18.5857864,9.58578644 C19.366835,10.366835 19.366835,11.633165 18.5857864,12.4142136 L10.1715729,20.8284271 L10.1715729,20.8284271 C9.42142736,21.5785726 8.40401171,22 7.34314575,22 L0,22 L0,0 Z" fill="#F2F4F6"></path>
</svg>